<?xml version="1.0" encoding="UTF-8" standalone="no"?>
<svg xmlns="http://www.w3.org/2000/svg" version="1.2" baseProfile="tiny" viewBox="0.00 0.00 460.00 460.00">
<g stroke-width="2.00" fill="none" stroke-linecap="butt">
<path stroke="#808080" vector-effect="non-scaling-stroke" d="
  M 255.47 173.57
  A 3.30 3.30 0.0 0 0 252.33 169.23
  L 244.53 169.25
  A 3.30 3.30 0.0 0 0 241.41 171.50
  L 202.97 286.65
  A 3.30 3.30 0.0 0 0 206.10 290.99
  L 213.87 291.00
  A 3.30 3.30 0.0 0 0 217.00 288.74
  L 255.47 173.57"
/>
<path stroke="#808080" vector-effect="non-scaling-stroke" d="
  M 157.83 229.78
  Q 157.98 229.53 158.22 229.24
  Q 167.10 218.60 175.81 207.81
  C 177.35 205.90 180.03 203.34 181.73 200.70
  C 182.67 199.23 184.49 198.19 184.04 195.73
  C 183.68 193.74 181.47 192.41 180.06 190.89
  C 175.24 185.69 170.33 195.40 167.68 198.18
  Q 165.57 200.40 165.28 200.75
  Q 153.91 214.49 142.76 227.76
  A 3.78 3.77 -45.1 0 0 142.76 232.61
  Q 157.21 249.81 172.05 267.47
  C 174.42 270.30 176.40 272.80 180.19 269.48
  C 182.24 267.68 184.99 266.03 184.69 262.77
  Q 184.64 262.29 184.33 261.92
  L 157.91 230.74
  A 0.84 0.83 -49.9 0 1 157.83 229.78"
/>
<path stroke="#808080" vector-effect="non-scaling-stroke" d="
  M 301.92 230.04
  A 1.04 1.03 57.5 0 1 301.72 230.97
  C 293.16 241.15 284.51 251.37 276.26 261.77
  C 274.69 263.75 275.50 265.76 277.43 267.15
  C 279.20 268.42 281.95 271.70 284.20 271.16
  C 286.19 270.69 289.55 266.64 290.63 264.89
  C 291.90 262.84 293.83 261.40 295.10 259.69
  Q 297.83 256.03 300.77 252.55
  Q 309.56 242.18 317.82 232.42
  A 3.56 3.56 0.0 0 0 317.61 227.59
  C 315.52 225.53 313.94 222.84 311.86 220.66
  C 306.92 215.47 302.53 209.56 297.82 204.12
  C 296.48 202.57 295.09 200.41 293.45 198.72
  C 290.86 196.05 288.33 191.35 285.33 189.90
  C 282.11 188.35 280.38 190.81 278.30 192.52
  C 276.18 194.26 274.58 196.49 276.52 198.88
  C 283.53 207.53 291.12 215.93 297.78 224.84
  C 299.00 226.47 301.35 228.06 301.92 230.04"
/>
</g>
<path fill="#000000" d="
  M 224.79 0.00
  L 236.02 0.00
  Q 242.46 0.72 248.92 1.03
  C 251.48 1.15 254.25 1.91 256.50 1.99
  Q 262.54 2.23 268.48 3.31
  Q 275.65 4.62 282.66 6.49
  Q 286.99 7.64 291.37 8.58
  C 298.19 10.04 304.02 12.73 310.51 14.68
  C 315.08 16.05 319.23 18.38 323.73 20.13
  Q 328.34 21.92 332.61 24.42
  C 333.83 25.13 335.21 25.31 336.48 26.05
  C 339.46 27.79 342.59 29.86 345.66 31.34
  Q 349.83 33.37 353.48 36.25
  C 355.01 37.45 356.89 37.83 358.46 39.09
  Q 361.10 41.19 361.17 41.24
  Q 366.63 44.94 374.60 51.16
  Q 376.31 52.49 377.16 53.57
  Q 377.46 53.96 377.91 54.18
  Q 380.94 55.65 382.93 58.37
  C 383.88 59.66 384.89 60.09 386.11 60.97
  C 388.06 62.36 389.36 64.57 391.34 66.18
  Q 392.81 67.38 394.30 69.19
  C 396.06 71.33 398.15 72.27 399.86 74.93
  C 401.75 77.86 404.43 78.99 406.10 82.45
  Q 406.32 82.91 406.74 83.18
  C 409.57 85.02 412.63 90.22 414.81 93.01
  C 416.62 95.32 418.43 98.47 420.59 100.98
  C 422.16 102.81 422.57 104.95 424.16 106.82
  C 427.13 110.31 428.92 114.79 431.54 118.71
  C 433.36 121.42 435.12 126.19 437.14 129.77
  C 438.70 132.54 440.19 136.67 441.01 138.46
  C 442.69 142.13 444.38 145.64 445.63 149.60
  C 446.82 153.42 448.31 157.24 449.69 161.07
  Q 450.70 163.89 451.79 168.57
  Q 452.62 172.17 454.08 177.15
  Q 457.23 187.88 458.48 203.75
  Q 458.63 205.64 459.11 208.26
  C 459.64 211.16 459.31 214.30 460.00 217.37
  L 460.00 243.25
  C 459.40 246.55 459.44 250.15 459.02 253.16
  Q 458.04 260.19 457.34 267.25
  C 456.58 274.88 453.64 284.54 451.33 293.88
  C 450.22 298.38 448.55 303.12 446.70 307.37
  C 445.62 309.85 445.19 312.70 444.18 314.91
  C 441.54 320.67 439.17 326.64 436.36 332.20
  Q 434.33 336.22 432.32 340.25
  C 431.28 342.34 429.43 344.43 428.42 346.93
  C 427.51 349.18 425.62 351.79 423.99 353.79
  C 422.75 355.31 422.27 357.14 421.20 358.62
  Q 414.99 367.18 408.62 375.63
  C 407.83 376.68 406.72 376.90 406.07 378.18
  C 404.37 381.56 401.46 383.19 399.33 386.24
  C 397.97 388.17 395.87 389.49 394.27 391.32
  C 392.29 393.58 389.97 395.29 388.09 397.65
  C 386.55 399.59 384.48 400.28 382.75 402.42
  Q 380.95 404.66 378.35 405.97
  C 376.97 406.66 376.24 408.17 374.97 409.13
  Q 367.00 415.12 358.93 420.98
  C 357.26 422.19 355.03 423.01 353.00 424.73
  Q 351.14 426.29 347.78 428.00
  C 343.44 430.20 339.56 432.95 335.09 434.91
  C 332.42 436.09 329.85 437.71 327.11 438.86
  C 322.49 440.80 318.40 442.67 314.04 444.55
  C 311.96 445.45 309.60 445.84 307.68 446.59
  C 302.80 448.51 298.26 450.25 292.91 451.50
  C 287.89 452.67 282.55 454.32 277.99 455.34
  C 268.66 457.41 260.68 457.96 251.94 459.18
  C 249.30 459.55 246.08 459.36 243.13 460.00
  L 217.23 460.00
  C 214.44 459.34 211.40 459.58 208.94 459.23
  C 201.90 458.25 194.54 457.67 187.82 456.44
  C 179.71 454.95 173.49 452.79 166.23 451.22
  C 161.86 450.27 157.06 448.42 152.94 446.65
  C 150.39 445.56 147.57 445.13 145.28 444.07
  C 135.41 439.50 125.66 435.80 116.65 430.16
  C 113.23 428.02 110.18 426.80 106.39 423.84
  Q 105.52 423.16 103.91 422.47
  C 101.94 421.63 100.18 419.86 99.02 419.05
  Q 91.46 413.82 84.26 408.10
  C 83.39 407.40 83.29 406.55 82.16 405.97
  C 78.80 404.28 77.57 401.75 74.93 399.79
  C 72.43 397.94 71.25 396.10 69.10 394.29
  C 66.73 392.30 65.18 389.89 62.73 387.98
  C 60.70 386.41 60.10 384.32 57.96 382.62
  Q 55.89 380.98 54.57 378.68
  C 53.63 377.04 52.36 376.21 51.24 374.73
  Q 48.36 370.91 45.40 367.15
  C 43.51 364.75 41.72 361.52 39.49 358.92
  C 37.96 357.14 37.29 354.96 35.87 353.05
  C 33.07 349.29 30.98 344.99 28.61 341.05
  C 26.55 337.63 25.02 333.87 23.21 330.44
  C 21.19 326.64 19.70 322.35 18.03 318.72
  Q 16.86 316.18 15.73 313.63
  C 14.79 311.53 14.46 309.16 13.62 306.91
  C 11.61 301.54 9.78 296.87 8.35 290.86
  C 6.52 283.13 4.92 277.32 3.04 267.25
  C 2.27 263.15 2.40 257.99 1.49 253.20
  C 0.98 250.50 1.00 246.97 0.84 245.16
  Q 0.44 240.53 0.00 235.89
  L 0.00 224.66
  Q 0.53 218.95 0.78 213.24
  C 0.93 209.71 1.79 205.97 2.04 202.68
  Q 3.04 189.61 6.55 176.99
  Q 7.40 173.95 8.48 168.87
  C 9.73 163.05 12.18 157.62 13.91 152.33
  Q 15.59 147.21 17.07 143.87
  Q 19.65 138.03 22.11 132.13
  C 22.96 130.09 24.51 128.12 25.33 125.82
  C 26.37 122.89 28.35 119.72 30.17 117.08
  C 31.14 115.66 31.52 114.02 32.38 112.69
  Q 34.46 109.47 36.63 106.33
  C 37.72 104.77 38.21 102.81 39.56 101.39
  C 41.94 98.87 42.97 96.19 44.84 93.85
  Q 48.35 89.46 51.82 85.04
  C 52.76 83.85 53.78 83.18 54.57 81.85
  C 56.30 78.94 58.80 77.45 60.74 74.67
  C 62.28 72.46 64.42 71.23 66.07 69.12
  Q 67.32 67.52 68.89 66.25
  Q 70.46 64.98 72.01 63.16
  C 73.72 61.13 75.84 60.24 77.56 58.20
  C 79.36 56.06 81.49 55.22 83.37 53.40
  C 86.62 50.26 90.34 47.76 93.87 44.96
  Q 95.17 43.91 96.88 42.93
  C 99.61 41.37 101.04 39.46 103.47 38.15
  C 107.06 36.22 109.60 34.34 112.72 32.38
  C 113.83 31.69 116.01 31.04 117.41 29.91
  C 119.63 28.13 123.39 26.25 126.15 25.20
  C 128.27 24.40 130.11 22.95 132.04 22.15
  Q 137.72 19.80 143.33 17.30
  C 148.74 14.89 154.60 13.28 160.25 11.14
  Q 164.43 9.55 168.97 8.61
  Q 173.43 7.69 177.83 6.48
  Q 184.46 4.67 191.23 3.41
  Q 197.56 2.22 204.00 2.00
  C 206.17 1.92 208.96 1.15 211.48 1.03
  Q 218.14 0.70 224.79 0.00
  Z
  M 255.47 173.57
  A 3.30 3.30 0.0 0 0 252.33 169.23
  L 244.53 169.25
  A 3.30 3.30 0.0 0 0 241.41 171.50
  L 202.97 286.65
  A 3.30 3.30 0.0 0 0 206.10 290.99
  L 213.87 291.00
  A 3.30 3.30 0.0 0 0 217.00 288.74
  L 255.47 173.57
  Z
  M 157.83 229.78
  Q 157.98 229.53 158.22 229.24
  Q 167.10 218.60 175.81 207.81
  C 177.35 205.90 180.03 203.34 181.73 200.70
  C 182.67 199.23 184.49 198.19 184.04 195.73
  C 183.68 193.74 181.47 192.41 180.06 190.89
  C 175.24 185.69 170.33 195.40 167.68 198.18
  Q 165.57 200.40 165.28 200.75
  Q 153.91 214.49 142.76 227.76
  A 3.78 3.77 -45.1 0 0 142.76 232.61
  Q 157.21 249.81 172.05 267.47
  C 174.42 270.30 176.40 272.80 180.19 269.48
  C 182.24 267.68 184.99 266.03 184.69 262.77
  Q 184.64 262.29 184.33 261.92
  L 157.91 230.74
  A 0.84 0.83 -49.9 0 1 157.83 229.78
  Z
  M 301.92 230.04
  A 1.04 1.03 57.5 0 1 301.72 230.97
  C 293.16 241.15 284.51 251.37 276.26 261.77
  C 274.69 263.75 275.50 265.76 277.43 267.15
  C 279.20 268.42 281.95 271.70 284.20 271.16
  C 286.19 270.69 289.55 266.64 290.63 264.89
  C 291.90 262.84 293.83 261.40 295.10 259.69
  Q 297.83 256.03 300.77 252.55
  Q 309.56 242.18 317.82 232.42
  A 3.56 3.56 0.0 0 0 317.61 227.59
  C 315.52 225.53 313.94 222.84 311.86 220.66
  C 306.92 215.47 302.53 209.56 297.82 204.12
  C 296.48 202.57 295.09 200.41 293.45 198.72
  C 290.86 196.05 288.33 191.35 285.33 189.90
  C 282.11 188.35 280.38 190.81 278.30 192.52
  C 276.18 194.26 274.58 196.49 276.52 198.88
  C 283.53 207.53 291.12 215.93 297.78 224.84
  C 299.00 226.47 301.35 228.06 301.92 230.04
  Z"
/>
<path fill="#ffffff" d="
  M 255.47 173.57
  L 217.00 288.74
  A 3.30 3.30 0.0 0 1 213.87 291.00
  L 206.10 290.99
  A 3.30 3.30 0.0 0 1 202.97 286.65
  L 241.41 171.50
  A 3.30 3.30 0.0 0 1 244.53 169.25
  L 252.33 169.23
  A 3.30 3.30 0.0 0 1 255.47 173.57
  Z"
/>
<path fill="#ffffff" d="
  M 157.83 229.78
  A 0.84 0.83 -49.9 0 0 157.91 230.74
  L 184.33 261.92
  Q 184.64 262.29 184.69 262.77
  C 184.99 266.03 182.24 267.68 180.19 269.48
  C 176.40 272.80 174.42 270.30 172.05 267.47
  Q 157.21 249.81 142.76 232.61
  A 3.78 3.77 -45.1 0 1 142.76 227.76
  Q 153.91 214.49 165.28 200.75
  Q 165.57 200.40 167.68 198.18
  C 170.33 195.40 175.24 185.69 180.06 190.89
  C 181.47 192.41 183.68 193.74 184.04 195.73
  C 184.49 198.19 182.67 199.23 181.73 200.70
  C 180.03 203.34 177.35 205.90 175.81 207.81
  Q 167.10 218.60 158.22 229.24
  Q 157.98 229.53 157.83 229.78
  Z"
/>
<path fill="#ffffff" d="
  M 301.92 230.04
  C 301.35 228.06 299.00 226.47 297.78 224.84
  C 291.12 215.93 283.53 207.53 276.52 198.88
  C 274.58 196.49 276.18 194.26 278.30 192.52
  C 280.38 190.81 282.11 188.35 285.33 189.90
  C 288.33 191.35 290.86 196.05 293.45 198.72
  C 295.09 200.41 296.48 202.57 297.82 204.12
  C 302.53 209.56 306.92 215.47 311.86 220.66
  C 313.94 222.84 315.52 225.53 317.61 227.59
  A 3.56 3.56 0.0 0 1 317.82 232.42
  Q 309.56 242.18 300.77 252.55
  Q 297.83 256.03 295.10 259.69
  C 293.83 261.40 291.90 262.84 290.63 264.89
  C 289.55 266.64 286.19 270.69 284.20 271.16
  C 281.95 271.70 279.20 268.42 277.43 267.15
  C 275.50 265.76 274.69 263.75 276.26 261.77
  C 284.51 251.37 293.16 241.15 301.72 230.97
  A 1.04 1.03 57.5 0 0 301.92 230.04
  Z"
/>
</svg>
